<?xml version="1.0" standalone="no"?>
<!DOCTYPE svg PUBLIC "-//W3C//DTD SVG 20010904//EN"
 "http://www.w3.org/TR/2001/REC-SVG-20010904/DTD/svg10.dtd">
<svg version="1.0" xmlns="http://www.w3.org/2000/svg"
 width="980.000000pt" height="980.000000pt" viewBox="0 0 980.000000 980.000000"
 preserveAspectRatio="xMidYMid meet">

<g transform="translate(0.000000,980.000000) scale(0.100000,-0.100000)"
fill="#000000" stroke="none">
<path d="M5555 8630 c-22 -5 -231 -46 -465 -90 -234 -45 -504 -96 -600 -115
-96 -19 -377 -73 -625 -120 -568 -108 -592 -113 -1225 -235 -572 -109 -606
-119 -693 -199 -82 -76 -148 -245 -132 -337 12 -68 129 -684 185 -979 98 -510
229 -1195 505 -2640 142 -742 261 -1353 265 -1358 3 -4 25 120 49 275 85 567
303 2009 351 2328 16 107 45 299 64 425 19 127 55 365 80 530 25 165 75 496
111 735 145 966 141 943 201 1046 37 63 127 154 188 189 131 77 255 97 431 71
187 -28 1489 -225 1695 -256 106 -17 200 -30 208 -30 10 0 12 8 8 28 -3 15
-24 122 -46 237 -28 146 -49 229 -70 272 -38 83 -112 156 -198 196 -57 27 -80
32 -157 34 -49 1 -108 -2 -130 -7z m-2737 -922 c86 -40 134 -148 113 -251 -28
-132 -162 -327 -303 -438 l-39 -32 -72 28 c-314 121 -488 301 -447 463 17 69
54 117 113 147 102 51 225 24 277 -60 25 -41 40 -45 40 -11 0 79 76 158 170
177 47 9 96 1 148 -23z"/>
<path d="M3972 8000 c-72 -26 -111 -52 -165 -109 -46 -49 -75 -99 -96 -161 -6
-19 -90 -557 -186 -1195 -217 -1434 -190 -1259 -459 -3040 -52 -346 -121 -796
-152 -1000 -64 -422 -65 -464 -15 -571 41 -88 108 -157 195 -199 65 -31 96
-38 346 -75 151 -22 376 -56 500 -75 197 -30 1250 -189 1825 -276 324 -49 784
-118 862 -130 40 -7 106 -9 147 -7 141 9 270 98 335 231 33 67 27 30 165 947
31 201 94 619 141 930 47 311 94 624 105 695 11 72 56 371 100 665 132 872
224 1486 299 1983 79 518 79 529 27 643 -36 79 -81 131 -150 175 -90 59 -15
44 -1011 194 -385 58 -727 110 -760 115 -33 6 -168 26 -300 45 -132 20 -341
51 -465 70 -1161 178 -1189 181 -1288 145z m388 -323 c0 -23 134 -217 204
-296 77 -86 101 -140 94 -211 -7 -65 -51 -138 -103 -167 -66 -37 -161 -29
-212 19 -17 16 -23 17 -23 7 1 -20 38 -100 57 -121 9 -10 13 -21 9 -25 -7 -7
-296 33 -305 43 -3 2 13 22 36 42 23 20 49 49 58 63 l16 27 -38 -14 c-79 -28
-147 -10 -203 54 -44 49 -55 87 -48 166 7 84 34 116 177 210 69 46 158 113
196 149 73 68 85 76 85 54z m1174 -2253 c109 -16 130 -22 137 -39 5 -11 49
-216 99 -455 50 -239 97 -466 106 -504 8 -38 37 -175 64 -305 27 -130 61 -290
75 -355 16 -74 22 -123 16 -129 -11 -11 -271 27 -280 41 -3 6 -28 117 -55 249
-27 131 -50 239 -51 240 -2 4 -626 95 -629 92 -2 -2 -54 -101 -116 -219 -63
-118 -118 -218 -122 -221 -5 -3 -62 2 -126 12 -64 10 -123 18 -129 19 -7 0
-13 5 -13 10 0 6 62 129 139 273 238 451 416 787 486 922 37 72 71 135 75 140
4 6 36 66 70 134 63 121 64 123 94 118 17 -3 89 -13 160 -23z m1080 -3214 c71
-11 132 -22 134 -25 3 -3 -18 -29 -46 -59 -29 -30 -52 -59 -52 -65 0 -5 17 -3
39 6 49 19 116 11 163 -20 102 -70 111 -247 16 -333 -12 -12 -54 -41 -93 -64
-92 -56 -176 -121 -240 -186 l-52 -53 -22 46 c-36 75 -85 146 -170 246 -115
138 -132 180 -108 273 35 134 166 195 281 131 27 -15 46 -21 46 -14 -1 19 -39
100 -57 119 -15 17 -14 18 8 18 13 0 82 -9 153 -20z"/>
<path d="M5292 4824 c-90 -179 -161 -328 -159 -331 7 -7 459 -73 467 -68 4 3
-12 98 -35 212 -24 115 -56 277 -71 361 -16 83 -31 152 -34 152 -3 0 -78 -147
-168 -326z"/>
</g>
</svg>
